<svg xmlns="http://www.w3.org/2000/svg" width="192" height="192" viewBox="0 0 192 192">
  <defs>
    <linearGradient id="goldGrad" x1="0%" y1="0%" x2="100%" y2="100%">
      <stop offset="0%" style="stop-color:#f5c400"/>
      <stop offset="100%" style="stop-color:#ffdd4a"/>
    </linearGradient>
  </defs>

  <rect width="192" height="192" rx="38" fill="#050505"/>
  <rect x="3" y="3" width="186" height="186" rx="36"
        fill="none" stroke="url(#goldGrad)" stroke-width="2" opacity="0.3"/>

  <g transform="translate(48, 38)">
    <ellipse cx="40" cy="35" rx="28" ry="24" fill="url(#goldGrad)" opacity="0.9"/>
    <path d="M 28 16 Q 40 4 52 16 Q 48 10 40 12 Q 32 10 28 16"
          fill="url(#goldGrad)"/>
    <circle cx="32" cy="32" r="3" fill="#050505"/>
    <circle cx="48" cy="32" r="3" fill="#050505"/>
    <ellipse cx="30" cy="38" rx="5" ry="2" fill="#ff7a00" transform="rotate(-20 30 38)"/>
    <ellipse cx="50" cy="38" rx="5" ry="2" fill="#ff7a00" transform="rotate(20 50 38)"/>
    <ellipse cx="40" cy="65" rx="26" ry="20" fill="url(#goldGrad)" opacity="0.85"/>
    <text x="40" y="82" text-anchor="middle"
          font-family="'Bebas Neue', Arial Black, sans-serif"
          font-size="16" font-weight="700" fill="url(#goldGrad)">CASA</text>
    <text x="40" y="98" text-anchor="middle"
          font-family="'Inter', Arial, sans-serif"
          font-size="6" font-weight="500" fill="#ffffff80">POULET</text>
  </g>
</svg>
