<svg xmlns="http://www.w3.org/2000/svg" width="72" height="72" viewBox="0 0 72 72">
  <defs>
    <linearGradient id="goldGrad" x1="0%" y1="0%" x2="100%" y2="100%">
      <stop offset="0%" style="stop-color:#f5c400"/>
      <stop offset="100%" style="stop-color:#ffdd4a"/>
    </linearGradient>
  </defs>

  <rect width="72" height="72" rx="14" fill="#050505"/>
  <rect x="1" y="1" width="70" height="70" rx="13"
        fill="none" stroke="url(#goldGrad)" stroke-width="1" opacity="0.3"/>

  <g transform="translate(16, 10)">
    <ellipse cx="18" cy="15" rx="12" ry="10" fill="url(#goldGrad)" opacity="0.9"/>
    <path d="M 12 7 Q 18 2 24 7 Q 22 4 18 5 Q 14 4 12 7"
          fill="url(#goldGrad)"/>
    <circle cx="14" cy="14" r="1.5" fill="#050505"/>
    <circle cx="22" cy="14" r="1.5" fill="#050505"/>
    <ellipse cx="13" cy="16" rx="2.5" ry="1" fill="#ff7a00" transform="rotate(-20 13 16)"/>
    <ellipse cx="23" cy="16" rx="2.5" ry="1" fill="#ff7a00" transform="rotate(20 23 16)"/>
    <ellipse cx="18" cy="28" rx="11" ry="9" fill="url(#goldGrad)" opacity="0.85"/>
    <text x="18" y="35" text-anchor="middle"
          font-family="Arial Black, sans-serif"
          font-size="7" font-weight="700" fill="url(#goldGrad)">CASA</text>
  </g>
</svg>
